<?xml version="1.0" encoding="utf-8"?>
<!-- Generator: Adobe Illustrator 23.0.3, SVG Export Plug-In . SVG Version: 6.00 Build 0)  -->
<svg version="1.1" id="Layer_1" xmlns="http://www.w3.org/2000/svg" xmlns:xlink="http://www.w3.org/1999/xlink" x="0px" y="0px"
	 viewBox="0 0 593.7 677.6" style="enable-background:new 0 0 593.7 677.6;" xml:space="preserve">
<style type="text/css">
	.st0{fill:#A2ACB4;}
	.st1{fill:#2A0D54;}
	.st2{fill:#FFFFFF;}
</style>
<g>
	<g>
		<path class="st0" d="M296.8,0C189.5,0,118,17.9,118,17.9v59.4V330c0,28,3.4,49.8,35.8,70.9c16.3,10.7,143.1,93.4,143.1,93.4
			s126.7-82.7,143-93.4c32.4-21.1,35.8-42.9,35.8-70.9V77.3V17.9C475.7,17.9,404.1,0,296.8,0"/>
	</g>
	<g>
		<path class="st1" d="M464.9,330c0,13.4-0.8,24.2-4.9,33.9c-4.4,10.4-12.7,19.4-26,28.1c-14.1,9.2-112,73.1-137.2,89.6
			c-25.1-16.4-123.1-80.4-137.2-89.6c-13.3-8.7-21.6-17.7-26-28.1c-4-9.6-4.9-20.5-4.9-33.9V75c23.8-4.7,85.3-14.9,168.1-14.9
			c82.9,0,144.4,10.2,168.1,14.9V330z"/>
	</g>
	<g>
		<polygon class="st2" points="228.9,322.8 228.9,344.3 333,344.3 364.8,317 364.8,239.2 333,211.9 314.7,211.9 314.7,233.4 
			325.1,233.4 343.3,249.1 343.3,307.1 325.1,322.8 268.2,322.8 268.2,233.4 279,233.4 279,211.9 228.9,211.9 228.9,233.4 
			246.8,233.4 246.8,322.8 		"/>
	</g>
	<g>
		<path class="st2" d="M286.1,315.6h21.4V194h78.7v-21.5h-78.7v-8.4c13.7-4.5,23.6-17.4,23.6-32.6c0-18.9-15.4-34.3-34.3-34.3
			c-18.9,0-34.3,15.4-34.3,34.3c0,15.2,9.9,28.1,23.6,32.6v8.4h-78.7V194h78.7V315.6z M296.8,118.4c7.3,0,13.2,5.9,13.2,13.2
			c0,7.3-5.9,13.2-13.2,13.2c-7.3,0-13.2-5.9-13.2-13.2C283.6,124.3,289.6,118.4,296.8,118.4"/>
	</g>
	<g>
		<path class="st2" d="M397,294v29.3c0,10.2-2.7,14.7-12.2,20.9c-6.2,4.1-55.2,35.6-77.2,49.8v-42.6h-21.5v42.6
			c-22-14.2-71-45.8-77.2-49.8c-9.5-6.2-12.1-10.7-12.1-20.9V294h-21.5v36.1c0,9.8,1.6,18.9,15.5,27.9c13.9,9,106.1,68.5,106.1,68.5
			S389.1,367,402.9,358c13.9-9,15.5-18.1,15.5-27.9V294H397z"/>
	</g>
	<g>
		<path class="st1" d="M182.4,47.6V26.4c6.4-0.8,12.7-1.5,19.1-2.2v4.6c-4.3,0.5-8.7,0.9-13,1.5v4c3.1-0.4,6.2-0.7,9.3-1v3.6
			c-3.1,0.3-6.2,0.7-9.3,1.1V42c4.3-0.5,8.7-1,13-1.4v4.9C195.2,46,188.8,46.8,182.4,47.6"/>
	</g>
	<g>
		<path class="st1" d="M225.8,43.8c-4.6,0.4-8.5-0.7-11.6-2.4c0.8-1.3,1.7-2.6,2.5-3.9c3,1.5,6.3,2.3,9.2,2.1
			c3.2-0.2,4.5-1.4,4.5-2.7c0-3.6-15.1-0.2-15.1-7.9c0-3.8,4.2-7.3,10.5-7.8c4.6-0.4,7.9,0.9,10.5,2.7c-0.9,1.2-1.9,2.3-2.8,3.5
			c-2.2-1.4-5.1-2.2-7.8-2c-2.8,0.2-4.5,1.3-4.5,2.6c0,3.4,15.3,0.5,15.3,8C236.4,40.2,231.8,43.4,225.8,43.8"/>
	</g>
	<g>
		<path class="st1" d="M261.2,24.6V41c-2.1,0.1-4.1,0.2-6.2,0.3V24.8c-2.6,0.1-5.2,0.3-7.8,0.4v-4.7c7.3-0.4,14.6-0.7,21.9-0.9v4.8
			C266.4,24.4,263.8,24.5,261.2,24.6"/>
	</g>
	<g>
		<path class="st1" d="M276.3,40.6V36c1.5,0,3-0.1,4.5-0.1v4.5C279.3,40.5,277.8,40.6,276.3,40.6"/>
	</g>
	<g>
		<path class="st1" d="M308.9,40.4V21.8c1.9,0,2.8-1.1,2.8-2.5c1,0,1.9,0,2.9,0v21.2C312.7,40.5,310.8,40.4,308.9,40.4"/>
	</g>
	<g>
		<path class="st1" d="M338.1,42c-3.9-0.2-6.8-1.3-9.4-3.3c0.9-1.1,1.7-2.2,2.5-3.3c1.9,1.4,4.3,2.3,6.5,2.4c3.7,0.2,5.4-1.9,5.4-5
			v-1.2c-1.6,1.3-3.5,2.1-6.1,2c-5.2-0.2-8.3-3-8.3-6.6v-0.4c0-4.1,3.8-7.5,9.7-7.2c6.1,0.3,10.2,4.4,10.2,10.4v2.4
			C348.6,38.2,344.6,42.3,338.1,42 M343,28c0-2.2-1.7-4.1-4.7-4.3c-2.7-0.1-4.3,1.1-4.3,3v0.4c0,1.9,1.4,3.2,4.2,3.3
			c2.1,0.1,3.6-0.6,4.8-1.5V28z"/>
	</g>
	<g>
		<path class="st1" d="M371,44c-3.9-0.3-6.8-1.6-9.3-3.7c0.8-1.1,1.7-2.1,2.5-3.2c1.9,1.5,4.2,2.5,6.5,2.6c3.7,0.3,5.4-1.7,5.4-4.8
			v-1.2c-1.6,1.3-3.5,2-6.1,1.8c-5.2-0.4-8.3-3.2-8.3-6.9v-0.4c0-4.1,3.8-7.3,9.7-6.9c6.1,0.5,10.2,4.8,10.2,10.7v2.4
			C381.6,40.6,377.5,44.6,371,44 M376,30.3c0-2.2-1.7-4.2-4.7-4.4c-2.8-0.2-4.4,0.9-4.4,2.8V29c0,1.9,1.5,3.3,4.2,3.5
			c2.1,0.2,3.6-0.4,4.8-1.4V30.3z"/>
	</g>
	<g>
		<path class="st1" d="M408.3,42.2v4.9c-1.9-0.2-3.7-0.4-5.5-0.7v-4.9c-3.8-0.5-7.7-0.9-11.5-1.2v-3.7c3.9-3.8,7.8-7.6,11.8-11.3
			c1.7,0.2,3.5,0.4,5.2,0.6v12.2c1.1,0.1,2.2,0.3,3.4,0.4v4C410.5,42.5,409.4,42.4,408.3,42.2 M402.8,31c-2,2-4,3.9-6,5.9
			c2,0.2,4,0.5,6,0.7V31z"/>
	</g>
	<g>
		<polygon points="118,540.7 141.4,540.7 141.4,548.4 126.5,548.4 126.5,552.9 141,552.9 141,560.4 126.5,560.4 126.5,571.1 
			118,571.1 		"/>
	</g>
	<g>
		<path d="M170.5,562H165v9.1h-8.3v-30.4h15.4c10.9,0,12.7,4.7,12.7,10.4c0,3.8-0.9,7.8-5.9,9.7l5.6,10.2h-9.1L170.5,562z
			 M171.9,555c3.3,0,4.4-0.6,4.4-3.4c0-2.9-1.1-3.6-4.4-3.6H165v7H171.9z"/>
	</g>
	<g>
		<polygon points="199.7,540.7 223.8,540.7 223.8,548.4 208.1,548.4 208.1,552.1 223.4,552.1 223.4,559.5 208.1,559.5 208.1,563.8 
			224,563.8 224,571.1 199.7,571.1 		"/>
	</g>
	<g>
		<polygon points="241,540.7 252.1,540.7 258.9,558.8 265.8,540.7 276.8,540.7 276.8,571.1 268.5,571.1 268.5,553.5 261.7,571.1 
			255.4,571.1 248.7,553.6 248.7,571.1 241,571.1 		"/>
	</g>
	<g>
		<path d="M301.5,540.5h8.6l12.3,30.6h-8.8l-1.5-3.9h-12.9l-1.5,3.9h-8.3L301.5,540.5z M309.4,560.2l-3.8-9.7l-3.8,9.7H309.4z"/>
	</g>
	<g>
		<polygon points="334.1,540.7 343.2,540.7 355,556.8 355,540.7 363.1,540.7 363.1,571.1 355.3,571.1 342.2,553.4 342.2,571.1 
			334.1,571.1 		"/>
	</g>
	<g>
		<polygon points="385.8,548.4 375.7,548.4 375.7,540.7 404.4,540.7 404.4,548.4 394.3,548.4 394.3,571.1 385.8,571.1 		"/>
	</g>
	<g>
		<polygon points="416.9,540.7 425.3,540.7 425.3,563.8 439.6,563.8 439.6,571.1 416.9,571.1 		"/>
	</g>
	<g>
		<polygon points="451.3,540.7 475.5,540.7 475.5,548.4 459.8,548.4 459.8,552.1 475.1,552.1 475.1,559.5 459.8,559.5 459.8,563.8 
			475.7,563.8 475.7,571.1 451.3,571.1 		"/>
	</g>
	<g>
		<path class="st1" d="M498.3,652.6l13.3-11.1v-28l-12-12h-61v15.2h10.6V638v24.3h-10.6v15.2h25.9v-24.3h15.7l16.7,24.3h19.2v-15.2
			h-11.2L498.3,652.6z M493.2,616.7l3.1,3.2v14.6l-4.3,3.6h-27.6v-21.3H493.2z"/>
	</g>
	<g>
		<path class="st1" d="M0,601.5v15.2h10.7v45.6H0v15.2h57.9L76,659.4v-39.7l-18.1-18.2H0z M60.8,653.1l-9.2,9.2H25.9v-45.6h25.7
			l9.2,9.2V653.1z"/>
	</g>
	<g>
		<path class="st1" d="M110.6,601.5l-18.1,18.2v39.7l18.1,18.1h33.7l18.1-18.1v-39.7l-18.1-18.2H110.6z M147.2,653.1l-9.2,9.2h-21.1
			l-9.2-9.2v-27.2l9.2-9.2H138l9.2,9.2V653.1z"/>
	</g>
	<g>
		<polygon class="st1" points="593.7,625.8 593.7,613.6 581.7,601.5 541.9,601.5 529.8,613.6 529.8,635.1 541.9,647.1 575.4,647.1 
			578.5,650.3 578.5,659.2 575.4,662.3 548.2,662.3 545.1,659.2 545.1,653.2 529.8,653.2 529.8,665.5 541.9,677.5 581.7,677.5 
			593.7,665.5 593.7,644 581.7,631.9 548.2,631.9 545.1,628.8 545.1,619.9 548.2,616.7 575.4,616.7 578.5,619.9 578.5,625.8 		"/>
	</g>
	<g>
		<polygon class="st1" points="196,601.5 177.9,619.7 177.9,659.4 196,677.5 229.7,677.5 247.9,659.4 247.9,648.7 232.7,648.7 
			232.7,653.1 223.4,662.3 202.3,662.3 193.1,653.1 193.1,625.9 202.3,616.7 223.4,616.7 232.7,626 232.7,630.4 247.9,630.4 
			247.9,619.7 229.7,601.5 		"/>
	</g>
	<g>
		<polygon class="st1" points="338.2,616.7 338.2,601.5 323.1,601.5 288,633.1 288,601.5 262.2,601.5 262.2,616.7 272.8,616.7 
			272.8,662.3 262.5,662.3 262.5,677.5 288,677.5 288,653.6 297.9,644.7 322.2,677.5 338.2,677.5 338.2,662.3 329.9,662.3 
			309.3,634.4 328.9,616.7 		"/>
	</g>
	<g>
		<polygon class="st1" points="353.4,616.7 365.6,616.7 365.6,662.3 353.4,662.3 353.4,677.5 421.9,677.5 421.9,654.7 406.7,654.7 
			406.7,662.3 380.8,662.3 380.8,647.1 405.1,647.1 405.1,631.9 380.8,631.9 380.8,616.7 406.7,616.7 406.7,624.3 421.9,624.3 
			421.9,601.5 353.4,601.5 		"/>
	</g>
</g>
</svg>
