<?xml version="1.0" encoding="UTF-8"?>
<svg id="Layer_1" xmlns="http://www.w3.org/2000/svg" version="1.1" viewBox="0 0 810.6199 661.325">
  <!-- Generator: Adobe Illustrator 29.0.1, SVG Export Plug-In . SVG Version: 2.1.0 Build 192)  -->
  <defs>
    <style>
      .st0 {
        fill: #b00;
      }
    </style>
  </defs>
  <g>
    <path class="st0" d="M733.2499,565.605c-53.74-2.7849-58.04-4.4249-58.04-12.37,0-9.625,11.835-13.555,41.9-13.555s42.35,4.465,42.35,15.44v.6951h46.285c-.205-30.27-5.8151-46.08-89.045-46.08-74.22,0-87.815,13.845-87.815,45.835s10.605,42.5149,77.125,45.8349c53.695,2.58,58.49,5.61,58.49,13.64v1.0649c0,9.83-6.76,14.825-43.62,14.825-39.365,0-46.5699-5.285-46.5699-15.645v-1.1049h-46.285c.41,37.5999,12.53,47.14,93.92,47.14h0l.04-.0399c75.855,0,88.635-14.95,88.635-48.37,0-29.9-11.1799-43.83-77.37-47.31h-.0001Z"/>
    <polygon class="st0" points="561.2299 619.0549 557.2549 619.0549 494.2199 512.7249 416.3149 512.7249 416.3149 658.3799 460.6349 658.3799 460.6349 552.0899 464.3599 552.0899 527.5999 658.3799 605.2999 658.3799 605.2999 512.7249 561.2299 512.7249 561.2299 619.0549"/>
    <path class="st0" d="M343.4,591.8599c0,26.38-9.545,29.9-47.39,29.9s-47.39-3.52-47.39-29.9v-79.1349h-46.285v81.6749c0,51.0265,12.9412,66.9195,93.675,66.9249,80.7288-.0054,93.675-15.8984,93.675-66.9249v-81.6749h-46.285v79.1349h0Z"/>
    <path class="st0" d="M105.22,565.605c-53.735-2.7849-58.035-4.4249-58.035-12.37,0-9.625,11.835-13.555,41.9-13.555s42.35,4.465,42.35,15.44v.6951h46.285c-.205-30.27-5.815-46.08-89.045-46.08-74.215,0-87.8149,13.845-87.8149,45.835s10.605,42.5149,77.125,45.8349c53.6949,2.58,58.4899,5.61,58.4899,13.64v1.0649c0,9.83-6.76,14.825-43.625,14.825-39.36,0-46.5699-5.285-46.5699-15.645v-1.1049H0c.405,37.5999,12.53,47.14,93.915,47.14h0l.045-.0399c75.855,0,88.6349-14.95,88.6349-48.37,0-29.9-11.185-43.83-77.3749-47.31h0Z"/>
  </g>
  <g>
    <path class="st0" d="M260.585,426.9199c44.645,10.565,93.51,16.38,144.705,16.38s100.0649-5.815,144.71-16.38h-289.415Z"/>
    <path class="st0" d="M512.6049,390.34c-12.9035,8.0931-26.6874,14.6891-41.085,19.66h135.7c16.34-5.895,31.905-12.45,46.485-19.66h-141.1,0Z"/>
    <path class="st0" d="M339.0549,409.9999c-14.3959-4.9709-28.1783-11.5668-41.08-19.66h-141.1049c15.1131,7.4219,30.6328,13.9855,46.485,19.66h135.7,0Z"/>
    <path class="st0" d="M533.74,375.145h147.8199c11.5455-6.935,22.6395-14.5953,33.215-22.935h-157.485c-7.2129,8.273-15.0891,15.9435-23.55,22.935h0Z"/>
    <path class="st0" d="M276.8,375.145c-8.4622-6.9902-16.3384-14.6607-23.55-22.935H95.76c10.5833,8.3292,21.6765,15.9891,33.215,22.935h147.825Z"/>
    <path class="st0" d="M754.7499,312.4749h-170.39c-4.7205,9.1447-10.1434,17.9093-16.22,26.215h162.445c9.01-8.395,17.1199-17.12,24.165-26.215Z"/>
    <path class="st0" d="M79.995,338.6899h162.44c-6.0733-8.3068-11.4944-17.0714-16.215-26.215H55.825c7.05,9.1,15.155,17.82,24.17,26.215Z"/>
    <path class="st0" d="M778.7148,271.1499h-178.5c-2.6133,10.079-6.0087,19.9389-10.155,29.4901h173.175c6.265-9.545,11.465-19.375,15.48-29.4901h0Z"/>
    <path class="st0" d="M210.365,271.15H31.865c3.975,10.115,9.175,19.95,15.485,29.49h173.215c-4.1642-9.5442-7.56-19.4055-10.155-29.49h-.045Z"/>
    <path class="st0" d="M605.8649,236.455c-.5983,8.2537-1.7054,16.4626-3.3149,24.58h179.77c3.0711-9.8899,4.9806-20.1036,5.69-30.435l.1249-2.005v-.29l-.04-.08h0c.1201-2.17.205-4.385.205-6.595,0-4.955-.33-9.87-.86-14.785H204.67c7.62-103.26,94.535-184.685,200.62-184.685,93.8799,0,172.725,63.775,194.925,149.99h178.4999C739.8449,73.565,587.4349,0,405.33,0,202.3799,0,36.33,91.34,23.18,206.845c-.2,1.965-.41,3.97-.53,5.98l-.125,1.965c0,.7-.08,1.435-.08,2.13-.04,1.555-.125,3.15-.125,4.7499,0,4.955.33,9.87.86,14.785h582.6849Z"/>
  </g>
</svg>