<?xml version="1.0" encoding="utf-8"?>
<!-- Generator: Adobe Illustrator 23.1.1, SVG Export Plug-In . SVG Version: 6.00 Build 0)  -->
<!DOCTYPE svg PUBLIC "-//W3C//DTD SVG 1.1//EN" "http://www.w3.org/Graphics/SVG/1.1/DTD/svg11.dtd" [
	<!ENTITY ns_extend "http://ns.adobe.com/Extensibility/1.0/">
	<!ENTITY ns_ai "http://ns.adobe.com/AdobeIllustrator/10.0/">
	<!ENTITY ns_graphs "http://ns.adobe.com/Graphs/1.0/">
	<!ENTITY ns_vars "http://ns.adobe.com/Variables/1.0/">
	<!ENTITY ns_imrep "http://ns.adobe.com/ImageReplacement/1.0/">
	<!ENTITY ns_sfw "http://ns.adobe.com/SaveForWeb/1.0/">
	<!ENTITY ns_custom "http://ns.adobe.com/GenericCustomNamespace/1.0/">
	<!ENTITY ns_adobe_xpath "http://ns.adobe.com/XPath/1.0/">
]>
<svg version="1.1" id="Layer_1" xmlns:x="&ns_extend;" xmlns:i="&ns_ai;" xmlns:graph="&ns_graphs;"
	 xmlns="http://www.w3.org/2000/svg" xmlns:xlink="http://www.w3.org/1999/xlink" x="0px" y="0px" viewBox="0 0 640.7 824"
	 style="enable-background:new 0 0 640.7 824;" xml:space="preserve">
<style type="text/css">
	.st0{fill-rule:evenodd;clip-rule:evenodd;fill:#FFFFFF;}
	.st1{fill-rule:evenodd;clip-rule:evenodd;fill:#008AAB;}
	.st2{fill-rule:evenodd;clip-rule:evenodd;}
</style>

<g>
	<path class="st0" d="M320.3,818.3l272.3-197.2c27.1-19.7,43.4-50.8,43.4-83.4V4.5H4.7v533.2c0,32.6,16.2,63.7,43.4,83.4
		L320.3,818.3"/>
	<path class="st0" d="M320.3,824L45.2,624.7c-28.3-20.5-45.2-53-45.2-87V0h640.7v537.7c0,34-16.9,66.5-45.2,87L320.3,824"/>
	<path class="st1" d="M320.3,818.3l272.3-197.2c27.1-19.7,43.4-50.8,43.4-83.4V4.5H4.7v533.2c0,32.6,16.2,63.7,43.4,83.4
		L320.3,818.3"/>
	<path class="st0" d="M22.9,21.9v515.8c0,27.1,13.5,53.2,36.2,69.5l261.3,189.3l261.3-189.3c22.7-16.4,36.2-42.4,36.2-69.6V21.9
		H22.9L22.9,21.9z"/>
	<path class="st2" d="M347.6,559.9v181.9l-27.2,19.7l-27.2-19.7V559.9C293.2,559.9,347.6,559.9,347.6,559.9z M426.4,559.9v124.8
		L372,724.1V559.9H426.4z M268.7,559.9v164.2l-54.4-39.4V559.9C214.3,559.9,268.7,559.9,268.7,559.9z M505.3,559.9v67.7L450.9,667
		V559.9L505.3,559.9L505.3,559.9z M189.8,559.9V667l-54.4-39.4v-67.7C135.4,559.9,189.8,559.9,189.8,559.9z M110.9,559.9v49.9
		L76.7,585c-8.9-6.4-15.8-15.1-20.1-25.1L110.9,559.9L110.9,559.9z M584.1,559.9c-4.3,10.1-11.2,18.7-20.1,25.1l-34.2,24.8v-49.9
		L584.1,559.9L584.1,559.9z M588.6,49.8v486.7H52.1V49.8H588.6z M356.5,183.3h-31.8l-25.8,66.2h36.2l5.5-14l46.3,118.9h-92.6
		l15.6-40h-36.2l-41.6,106.8h-21.8v32.4h80v-32.4h-22l13.4-34.4h117.8l13.4,34.4h-22v32.4h80v-32.4h-21.8L356.5,183.3L356.5,183.3z
		 M326.3,423.7c-5,0-8.9,2.8-8.9,7.2c0,3.1,2.5,5.2,4.2,6.1c-1.2,0.7-5,3.2-5,6.7c0,4.3,3.8,7.5,9.6,7.5c6,0,9.8-3.2,9.8-7.5
		c0-3.4-3.1-5.6-5-6.6v-0.2c1.7-0.9,4.2-3.1,4.2-6C335.4,426.5,331.4,423.7,326.3,423.7z M369.1,423.7c-6.6,0-10.4,5.1-10.4,13.7
		c0,8.6,3.8,13.7,10.3,13.7c6.6,0,10.3-5.1,10.3-13.7S375.6,423.7,369.1,423.7L369.1,423.7z M311,424.1h-2.9l-5.9,4.8
		c-0.2,0.2-0.2,0.4-0.2,0.7l0.2,1.9c0,0.4,0.4,0.6,0.8,0.5l3.6-0.8V450c0,0.4,0.3,0.7,0.8,0.7h3.5c0.4,0,0.7-0.3,0.7-0.7v-25.2
		C311.7,424.4,311.4,424.1,311,424.1L311,424.1z M357.2,424.1h-17.1c-0.4,0-0.8,0.4-0.8,0.8v2.7c0,0.4,0.4,0.7,0.8,0.7H351
		l-10.7,21.3v0.4c0,0.6,0.5,0.7,1,0.7h3c0.7,0,1.1-0.4,1.4-1.1l12.2-24.6v-0.3C358,424.4,357.6,424.1,357.2,424.1L357.2,424.1z
		 M326.4,439.4c2.7,0.6,4.3,2.4,4.3,4.2c0,2.1-2,3.6-4.3,3.6c-2.2,0-4.3-1.5-4.3-3.6C322.1,441.8,323.6,440,326.4,439.4L326.4,439.4
		z M369.1,428.3c3.2,0,5,3.3,5,9.1c0,5.9-1.8,9.1-5,9.1s-5-3.2-5-9.1C364.1,431.6,365.9,428.3,369.1,428.3z M326.3,427.7
		c2.1,0,3.8,1.5,3.8,3.3c0,1.7-1.2,3.2-3.7,3.7c-2.6-0.6-3.7-2-3.7-3.7C322.6,429.2,324.3,427.7,326.3,427.7z M346.1,126.1H188.6
		v32.4H210v185.6h-21.4v32.4h42.8l12.6-32.4v-46h102.9l-12.6-32.4H244V158.6h102.1l2.8,0.1c29.6,1.4,53.2,24.8,53.2,53.5
		c0,9-2.4,17.6-6.5,25l14,35.9l2.5-2.5c14.9-15.3,24-35.9,24-58.4C436.1,164.7,395.7,126.1,346.1,126.1L346.1,126.1z"/>
</g>
</svg>
