<?xml version="1.0" encoding="utf-8"?>
<!-- Generator: Adobe Illustrator 25.0.0, SVG Export Plug-In . SVG Version: 6.00 Build 0)  -->
<svg version="1.1" id="Layer_1" xmlns="http://www.w3.org/2000/svg" xmlns:xlink="http://www.w3.org/1999/xlink" x="0px" y="0px"
	 width="600.5px" height="700px" viewBox="0 0 600.5 700" style="enable-background:new 0 0 600.5 700;" xml:space="preserve">
<style type="text/css">
	.st0{fill:#E1251B;}
</style>
<path class="st0" d="M297.3,37.7c0-22.8-17.1-35.2-43.9-35.2h-46.3v72.8H253C279.2,75.4,297.3,60.4,297.3,37.7z M227.9,61.3V20.8
	c-1.5-1.3-4-3.2-5.6-3.9v-0.3h27.9c14.9,0,25.1,7.3,25.1,21.5c0,14.6-9.4,23.2-25,23.2H227.9z M496.6,75.4h-74.3V2.6h73.5v14.6
	h-58.4v0.3c1.6,0.8,4.1,2.6,5.6,3.9v10.3h51.1v13.5h-56.7v0.3c1.6,0.8,4.1,2.6,5.6,3.9v11.4h53.5C496.6,60.8,496.6,75.4,496.6,75.4z
	 M333.2,75.4h-18.8V2.6h22.1l37.9,41.3c2.4,2.9,4.4,5.3,5.7,8.2h0.4V41.7V2.6h18.8v72.8h-20.6l-39.3-41.8c-2-2.3-4.7-6-5.8-8.3h-0.4
	v10.2V75.4z M75.9,54.8c0-4.5-3.1-6.4-11.7-7.3L41.9,45c-17.7-1.9-26.5-8.5-26.5-21.9C15.4,8.6,29.6,0,54.5,0
	c18.4,0,32.7,4.8,41.8,15.1L83.2,26c-5.3-7.3-15.8-11.6-29.8-11.6c-11.3,0-17.3,2.7-17.3,7.7c0,4.4,3,6.1,12.3,7.1l20,2
	c20.1,2.1,28.4,8,28.4,21.4c0,16.2-15,25.2-41.3,25.2C34,78,17.1,70.8,9.7,59.3l14.8-10.4c6.1,8.5,17.2,14.4,32.1,14.4
	C69.8,63.3,75.9,60.5,75.9,54.8z M137.6,75.4V50.6l-36.4-48h23.6l21,29.5c1.6,2.2,2.1,3.1,2.5,4.1h0.2c0.3-1,0.7-1.9,2.4-4.1
	l21.7-29.5H195l-36.6,48v24.8C158.4,75.4,137.6,75.4,137.6,75.4z M543.1,75.4V50.6l-36.4-48h23.6l21,29.5c1.6,2.2,2.1,3.1,2.5,4.1
	h0.2c0.3-1,0.7-1.9,2.4-4.1l21.7-29.5h22.4l-36.6,48v24.8C563.8,75.4,543.1,75.4,543.1,75.4z"/>
<path class="st0" d="M533.7,232L533.7,232L533.7,232l-12.6,26.2l-1.6,3.2c-7.8-22.8-18.5-41.7-30.7-57.2
	c-46.5-59.1-114.3-70-122.8-71.1c-0.3,0-0.6-0.1-0.9-0.1l4.9-10.3l11-23.1l219.1,0L533.7,232z M441,273c32.7,36.1,20,80.1,20,80.1
	l0,0.1c0.4-50.2-27.3-74.1-37.9-85.8c19.4-5.4,32.8-0.8,35.2-0.2c0.2,0,0.3,0.1,0.3,0.1c-8.3-24.4-31.7-42.6-52.3-53.6
	c9.5-5.7,23.8-6.1,23.8-6.1s-10.6-10.9-32.8-18.4c-4.9-1.7-10.3-3.2-16.3-4.3c-11.3-2.3-24.7-3.4-40.1-2.4
	c-7.9,0.5-16.3,1.6-25.2,3.3v0c0,0,10.8-4.4,27.1-7c27.7-4.3,71.2-3.5,105.2,34.6l0,0l0,0c-4,0.2-14.6-0.6-23.3,2.1
	c18.2,9.8,42.8,40.8,44.9,62.9C452.7,270.9,441,273,441,273z M384.1,531.6c41.8-83.4,41.6-138.5,31-171.1
	c-10.4-38.1-32.2-51.1-47.7-54.8c-0.7-0.2-3-0.6-6-0.8c-3.5-0.2-7.9,0-12,1.4c-1.8,0.6-3.6,1.5-5.1,2.8c-3.6,2.8-6.4,6.3-8.3,9
	c-0.5,0.7-1,1.3-1.5,2c-0.3,0.4-0.6,0.8-1,1.2c-13.6,16.1-34.3,26.4-34.3,26.4c-18.7,10.2-38.4,9.1-51,6.7
	c-4.3-1-14.7-4.2-25.2-12.5c-1.3-1.1-2.6-2.3-3.8-3.5c-0.7-0.7-1.4-1.5-2.1-2.3c-0.3-0.4-0.7-0.8-1-1.2
	c-10.9-13.5-12.7-30.5-11.6-44.7l0,0c0,0,0,0,0,0c0-0.4,0.3-2.8,1.9-4.7c0.2-0.3,0.5-0.6,0.9-0.9c0.1,0,0.1-0.1,0.2-0.1
	c0,0,0.1-0.1,0.2-0.1c2.7-2,4.1-1.5,7.5-3.2c0,0,0,0,0,0c4.1-1.8,7.7-5.2,10-9.7c0.2-0.5,0.5-1,0.7-1.5c1-2.3,1.4-4.7,1.6-7
	c0-0.4,0-0.9,0-1.3c0-0.1,0-0.1,0-0.2c-0.1-6.6-3.3-12.6-8.7-15.6c4.6-8.1,10.9-17.2,19-24.5c0.6-0.6,1.3-1.1,1.9-1.7
	c0.1-0.1,0.2-0.1,0.2-0.2c0,0,0.1,0,0.1-0.1c0.1-0.1,0.2-0.2,0.4-0.3c8.9-7.7,19.3-13.3,24-15.7c0.7-0.4,1.4-0.8,2.2-1.2
	c0,0,0,0,0,0l0,0h0c-0.7,0.1-1.6,0.1-2.3,0.2c-9.8,1.3-52.5,9-73.4,44.5c-0.2,0.4-0.4,0.7-0.6,1.1c0,0,0,0,0,0c0,0-0.1,0.1-0.1,0.1
	c-0.5,0.9-1.3,2.2-2.1,3.7c-1,1.8-2.1,3.8-3.2,6c-1,1.9-2,3.9-3,5.8c-0.9,1.9-1.9,3.6-2.7,5.2c0,0,0,0,0,0
	c-1.6,3.1-5.9,10.1-5.9,10.1h0c-6.8,9.4-15.6,18.2-25.8,20.6c-1.8,0.4-3.5,0.6-5.4,0.6c-3.9,0-7.1-0.6-9.6-1.6
	c-0.3-0.1-0.6-0.3-0.8-0.4c-13-7.3-6.9-25.6-4.1-32.3c0,0,0-0.1,0-0.1c0,0,0-0.1,0-0.1c19.3-42,66.3-87.1,117.7-112.8
	c21.7-10.9,44.2-18.3,65.7-20.5c6.7-0.7,13.8-1.5,21.5-1.5l0,0c0,0,0.1,0,0.1,0c2.1,0,4.2,0,6.3,0.1c0.1,0,0.3,0,0.4,0
	c1.3,0,2.6,0.1,3.9,0.1c0.7,0,1.5,0,2.2,0.1c-20.6-5.3-59.1-8-104.3,13.2c0,0,0,0-0.1,0l-0.4-0.8l-10.6-21.3l-11.2-22.4L0,99.7
	l107.7,215.4c-9.2,17.7-9.3,33.8-4.5,43.7l0.7,1.4c1.8,3.1,7,10.4,16.9,8.3c0.8-0.2,1.6-0.4,2.3-0.7c0.5-0.2,1-0.4,1.5-0.6
	c3.1-1.5,5-3.8,6.1-6c1.3-2.6,1.7-5.1,1.7-6.3c2.3,6.3,4.1,13.4,5.4,20.6c1.8,10.1,2.6,20.5,2,29.2c0,0,9.8-16.4,12.1-35.4
	c0-0.1,0-0.1,0-0.2c2.2-16.5,0.5-32,0-38.4c-0.1-1.1-0.1-2.2-0.1-3.3c0-0.2,0-0.3,0-0.5l0,0c0,0,0-0.1,0-0.1c0-0.5,0-2.4,0.4-4.7h0
	c0,0,0.2-1.2,0.7-2.8c0.6-1.8,1.8-4,3.8-5.2c0,0,0.1,0,0.1-0.1l0,0c0,0,5.9-3.2,8.8-1.2c0,0,0,0,0.1,0c0.6,0.4,1.2,0.8,1.9,1.5
	c0.1,0.1,0.1,0.2,0.2,0.3c0,0,0,0.1,0.1,0.1c0.1,0.1,0.2,0.2,0.3,0.3c0.2,0.3,0.5,0.6,0.8,1c0,0,0,0,0,0c1,1.4,2.2,3.1,3.4,5.4
	c5.9,11,17.2,20.4,18.7,21.7c8.9,6.8,20.1,13.7,33.9,19.3c-10.3,21.5-32.5,46.4-56.2,69.7c-0.6,0.6-1.2,1.2-1.8,1.8
	c-0.1,0.1-0.2,0.2-0.3,0.3l0,0c0,0-0.1,0.1-0.1,0.1c-21.8,21.2-44.5,41.1-61,53.8c-4,3.1-7.4,6.2-10.1,9.3c0,0,0,0,0,0
	c-0.7-1.4-1.3-2.9-1.7-4.3c-1.3-4.6-1.2-9.3-0.1-14.3c0.4-1.9,0.8-3,0.8-3l0,0c6.6-22.3,30.4-50.2,29.4-95.9
	c-5.8,44.1-45,87.7-48.8,111.2c-1.3,8-1,14.6,0.7,20.1l0,0c0,0.1,0,0.1,0.1,0.2c0.5,1.5,1.1,3,1.8,4.3c0,0.1,0.1,0.2,0.2,0.3
	c0.1,0.1,0.1,0.2,0.2,0.3c1.3,2.3,2.9,4.3,4.5,5.8c2,1.9,4.2,3.3,6.1,4.3c0,0,0,0,0.1,0c1,0.5,2,0.9,2.8,1.2c0,0,0,0,0,0
	c0.9,0.3,1.7,0.6,2.2,0.7c0,0,0.1,0,0.1,0s0.1,0,0.1,0c0,0,0.1,0,0.1,0c0,0,0,0,0,0c0.2,0,0.2,0,0.2,0c0-0.4,1.3-9.3,9.2-19.4
	c2.7-3.4,6.1-7,10.5-10.4c3.6-2.8,17.2-13.4,34.4-28.5c7.9-6.9,16.5-14.7,25.3-23.2l0.8,1.6L300.1,700L384.1,531.6z M122.4,325.6
	c-1.1,3.5-3.3,6.1-5.7,7.2c-1.2,0.5-2.4,0.7-3.6,0.3c-3.5-1.1-5-6.3-3.3-11.5c0.2-0.5,0.4-1,0.6-1.5c1.9-4.4,5.6-7,8.7-6
	C122.5,315.2,124,320.4,122.4,325.6z M198.1,273.5c-2.8,0-5-1.9-5.8-4.4c-0.1-0.3-0.1-0.6-0.2-0.9c0-0.2-0.1-0.5-0.1-0.8
	c0,0,0,0,0,0c0-3.3,2.7-6,6-6c3.3,0,6,2.7,6,6C204.1,270.8,201.4,273.5,198.1,273.5z M268.7,528.8h-7.5v-27.9
	c-1.2,1.1-3.3,1.5-5.3,1.5h-0.8v-7.2h0.6c3.3,0,6-1.9,7-5.3h6.1L268.7,528.8L268.7,528.8z M297.2,519.3c0,6.3-4.3,10.3-11,10.3
	c-7,0-11.1-3.8-11.1-10.3v-2.8c0-3.5,1.9-6.1,5.3-7.5c-3.1-1.7-4.8-4.2-4.8-8.5v-2.2c0-5.8,4.1-9.5,10.5-9.5
	c6.5,0,10.4,3.5,10.4,9.4v2.4c0,3.3-1.4,5.5-4.4,7.1c3.5,1.7,5.2,4.3,5.2,8.9L297.2,519.3L297.2,519.3z M313,528.8h-7.8v-2.1
	c0.1-11.6,3.3-21.9,8.5-30.6h-13v-6.3h20.3v5.2c-5.6,8.2-8,18.4-8.1,29.1V528.8L313,528.8z M344.1,520.3h-4v8.5h-7.4v-8.5h-12.2
	v-5.6l10.6-24.9h8.9v24.6h4C344.1,514.4,344.1,520.3,344.1,520.3z M282.9,501.2v-3.1c0-2.8,1.1-4,3.1-4s3.1,1.3,3.1,4v3.3
	c0,2.1-0.6,3.4-2.1,4.3l-0.6-0.2C284.1,504.7,282.9,503.5,282.9,501.2z M289.5,516.1v3.6c0,2.8-1.1,4.2-3.4,4.2
	c-2.3,0-3.5-1.4-3.5-4.3v-3.8c0-2.4,0.7-3.8,2.5-4.7l0.7,0.3C288.6,512.5,289.5,513.5,289.5,516.1z M332.9,497.9h0.1
	c-0.1,1.5-0.2,3.3-0.2,4.8v11.6h-6.4c0.6-0.8,1-1.7,1.5-3.1l3.4-8.6C332.1,500.8,332.6,499.5,332.9,497.9z"/>
</svg>
